PathFileType	4	(X/Y/Z)	/Users/visionmauri/Downloads/Videos/OAW03-top_Sports2D/OAW03-top_Sports2D_px_person00.trc
DataRate	CameraRate	NumFrames	NumMarkers	Units	OrigDataRate	OrigDataStartFrame	OrigNumFrames
30.0	30.0	10	22	m	30.0	1073	2146
Frame#	Time	Hip			RHip			RKnee			RAnkle			RBigToe			RSmallToe			RHeel			LHip			LKnee			LAnkle			LBigToe			LSmallToe			LHeel			Neck			Head			Nose			RShoulder			RElbow			RWrist			LShoulder			LElbow			LWrist			
		X1	Y1	Z1	X2	Y2	Z2	X3	Y3	Z3	X4	Y4	Z4	X5	Y5	Z5	X6	Y6	Z6	X7	Y7	Z7	X8	Y8	Z8	X9	Y9	Z9	X10	Y10	Z10	X11	Y11	Z11	X12	Y12	Z12	X13	Y13	Z13	X14	Y14	Z14	X15	Y15	Z15	X16	Y16	Z16	X17	Y17	Z17	X18	Y18	Z18	X19	Y19	Z19	X20	Y20	Z20	X21	Y21	Z21	X22	Y22	Z22
1073	35.7833411033411	624.7489157172898	1083.7693090235155	0.0	568.2999688867642	1087.4654760466544	0.0	554.2448902763242	1257.6235639208062	0.0	577.0493012337967	1374.522919497023	0.0	586.696367186559	1457.4899458983145	0.0	558.5729931532726	1443.399070842111	0.0	585.1349068340941	1381.4838913438211	0.0	677.7264128424827	1088.1595732866856	0.0	677.8834612515501	1292.1071632324424	0.0	672.4435067697793	1499.8527755669504	0.0	666.227961152632	1576.1771479174774	0.0	693.0764352622149	1564.4754254926497	0.0	663.7055584467458	1519.1929090096658	0.0	623.7016297347725	818.7348314236962	0.0	644.0477149759774	706.5866924647281	0.0	639.6426701781343	801.1892632485044	0.0	523.3456597465705	842.4536355524682	0.0	477.0703659939878	982.4726090072273	0.0	465.29349952334144	1108.580128302564	0.0	717.5290123385296	833.2510476380168	0.0	759.2025368234491	963.9704278873531	0.0	791.1237383542125	1086.7033514022924	0.0
1074	35.81668997668998	627.8809914229118	1093.8990551111656	0.0	570.3826071330161	1097.55089458084	0.0	553.1278643182366	1263.532554088955	0.0	578.0453808049743	1376.1879703821655	0.0	587.6396841916489	1458.3793657654528	0.0	559.0203282202222	1443.97571626409	0.0	586.1005888721268	1381.440535023954	0.0	680.6230726048623	1099.2611357309968	0.0	679.9623730938566	1305.1486155716523	0.0	674.3189805388099	1518.4817733917996	0.0	668.5182517040265	1596.8107571724986	0.0	695.7107382730899	1583.307109928167	0.0	665.2155686905865	1538.9039250481324	0.0	628.6674755436429	825.1656628712803	0.0	651.0228310405195	713.6635063574371	0.0	646.1766223068812	810.3055762684571	0.0	527.1033696988358	850.1872192460102	0.0	478.77944000647904	989.1554834281725	0.0	465.64914163795027	1114.317338998011	0.0	724.0166290846756	841.9048178812909	0.0	765.7781464540739	971.4014352547351	0.0	800.1680080493929	1092.568731253445	0.0
1075	35.85003885003885	632.3645093065066	1104.2458476643803	0.0	573.2395590489509	1107.8481756203814	0.0	553.6370387606521	1268.9650174957046	0.0	578.0423160362648	1378.1371712087557	0.0	589.2661619542461	1458.3880358811543	0.0	559.1096619944624	1443.6160858245319	0.0	586.8652074875537	1380.8344858762691	0.0	684.0601873417905	1109.6614716377057	0.0	681.9959190116031	1317.5512805133012	0.0	674.6763755540483	1532.8178524567165	0.0	670.4220459627597	1617.0639636285987	0.0	698.2679053192803	1602.9542262762307	0.0	665.1527127939743	1554.1582635180912	0.0	634.6222737675974	831.710873409767	0.0	656.7611181683297	718.722859970627	0.0	652.7136894678556	814.6329328226483	0.0	531.7062543096105	857.9027967980344	0.0	481.3536043641623	996.2550262532212	0.0	466.9808787005234	1121.1143212743145	0.0	732.3729881089373	851.0127372072844	0.0	774.296631061038	979.9812933625628	0.0	810.6191952823438	1100.7359589090436	0.0
1076	35.88338772338772	637.2244625036756	1113.2336358690998	0.0	575.8344174534956	1116.142722526517	0.0	556.8718167722816	1275.194051718296	0.0	577.1539710740597	1379.5960974336413	0.0	591.2906359664881	1458.568402311142	0.0	559.3443470934741	1444.0102414631365	0.0	587.0751968238454	1378.8784057607536	0.0	688.4240184918797	1117.9213291905207	0.0	684.9004191671909	1328.5008358035886	0.0	675.299432783964	1543.23392699125	0.0	672.172905576356	1631.6079231751817	0.0	700.6717575541672	1618.6803048930146	0.0	665.0882812741951	1564.7289375108485	0.0	640.4529073208228	839.743995022025	0.0	660.6508569572248	726.2573991004632	0.0	657.5916847320694	821.7677652032088	0.0	536.40228452348	863.9417064267903	0.0	484.8090790204865	1002.7942409353896	0.0	469.00320900059484	1129.500860052044	0.0	740.4636382776034	858.6178605024196	0.0	783.088370589342	988.5287641581242	0.0	821.8672977678586	1111.2999067994579	0.0
1077	35.9167365967366	640.991414677593	1119.7992867045352	0.0	577.7804348403906	1121.4400330520873	0.0	562.0587621277389	1282.1681032127435	0.0	576.0908671713473	1381.37842413967	0.0	593.2927342643832	1458.9044975972763	0.0	560.7220799592058	1445.960485750635	0.0	585.8352249518784	1377.7782062160643	0.0	693.497910712585	1124.1662233665652	0.0	688.6681043383406	1336.6322018114502	0.0	676.2829176665135	1549.089757272819	0.0	672.8739611228294	1636.01771731467	0.0	702.0995228381855	1625.1845115666845	0.0	665.2060662193824	1569.4467914084928	0.0	646.2608398967071	846.9480707872966	0.0	665.8854183838146	734.6749416176762	0.0	662.0909826694557	834.467575108084	0.0	540.813541647413	867.0649951510946	0.0	488.96168833428044	1007.9566995997818	0.0	471.75000703538404	1136.9319000836497	0.0	747.550572247429	863.645465423148	0.0	790.460479079257	996.0429984005676	0.0	832.3977038421069	1123.075997193253	0.0
1078	35.95008547008547	644.3429966929635	1125.5339293057823	0.0	580.7037181821581	1126.4942585538424	0.0	566.9538065467626	1289.6366867430577	0.0	575.5254494314273	1384.975421254442	0.0	594.826689498007	1461.0984524710902	0.0	562.5035270506984	1449.5602532735595	0.0	583.0654584461469	1379.9165453721478	0.0	699.0196813285062	1130.9185320583742	0.0	692.5337177328555	1342.9194052159612	0.0	676.885590464313	1551.110832575494	0.0	672.1608669543822	1634.0279668006867	0.0	702.5182092511859	1624.8784777760113	0.0	665.0505923860242	1569.9695455326296	0.0	653.2078148419831	849.9936409274894	0.0	674.7682341500207	739.4055148172448	0.0	669.0022135656723	846.0085027903714	0.0	545.5235209360985	868.5587697611854	0.0	493.76685334865067	1011.6006142535952	0.0	475.53461869158457	1140.8005489932311	0.0	755.3694276115071	867.5534176470517	0.0	797.6024877905787	1003.9640914246582	0.0	841.5396728026458	1135.550343428384	0.0
1079	35.98343434343434	648.5645831290183	1132.9133584736815	0.0	586.0861224960579	1134.7292574264059	0.0	569.8222858409849	1299.3069636253324	0.0	575.4679027003634	1390.0120150374696	0.0	594.648934693674	1467.1139154477235	0.0	562.4322104068616	1454.585818933447	0.0	580.3403635230208	1384.5920522136178	0.0	704.5733583185099	1140.7520210326284	0.0	695.7038314680937	1350.0795053578186	0.0	676.9234083864967	1551.331752704698	0.0	670.8598928600069	1631.8730070958482	0.0	702.6990826388275	1623.1813994330012	0.0	664.767629534295	1569.6800573011394	0.0	660.964411937254	849.2945754840862	0.0	684.3585513208749	740.1566796397227	0.0	678.1042176949077	850.8080436883148	0.0	550.2637601256243	870.5919226599034	0.0	499.0620462565337	1014.0984343171145	0.0	480.43360489934554	1141.7179245881905	0.0	764.775704429273	872.3313403815441	0.0	806.1840464203536	1014.2336290761108	0.0	849.5500939782561	1148.8726259146963	0.0
1080	36.01678321678322	653.1966710367154	1141.7787935363572	0.0	592.2220428615593	1144.009525577942	0.0	571.0222534781125	1312.2669293758286	0.0	574.845479625098	1395.0735769183586	0.0	591.757558878845	1476.8429085201697	0.0	560.1191101428984	1461.482800428969	0.0	578.4337422270028	1389.9914397285766	0.0	709.4224969743324	1151.2813643099344	0.0	698.0153035976225	1357.4642666794034	0.0	676.7472048625183	1551.353527105574	0.0	670.1792264016864	1631.4173297570612	0.0	703.0556911634151	1622.4542918126444	0.0	664.8720433047484	1570.5641097544117	0.0	667.3911495276749	850.6817831608322	0.0	690.5022486450223	739.9827199787873	0.0	684.8160076849191	852.2528225957753	0.0	553.5681932808945	873.1064769518352	0.0	504.12198398606677	1015.5041810576876	0.0	486.39984719480793	1142.5297694683138	0.0	774.1707941485105	878.1971316098321	0.0	815.1380327732069	1026.2455907750573	0.0	856.7870053976602	1163.453482074506	0.0
1081	36.05013209013209	656.8236608660335	1149.985490676391	0.0	595.9404002412824	1150.3143396063906	0.0	572.2341896027249	1325.785005034304	0.0	572.8210669848694	1401.8489517922353	0.0	587.1080174384876	1490.8491070392438	0.0	557.2370130637001	1472.938502308714	0.0	576.4094973648504	1398.2786034374628	0.0	713.5134530089367	1158.3549022390503	0.0	699.7164866557764	1362.2766913622027	0.0	676.7981618744845	1551.9911290907526	0.0	670.822509201964	1632.064760342243	0.0	703.5247207153149	1622.9720108361605	0.0	665.4664352867175	1572.8146135469622	0.0	671.4269869439364	857.5257468971915	0.0	692.6960029482033	739.6832441997494	0.0	686.2179023099156	855.2584438967449	0.0	554.6579801751072	874.8131233079959	0.0	508.4976938882257	1015.8355547844059	0.0	493.104999131124	1144.6044825238541	0.0	781.7293554986445	884.3035666391938	0.0	822.6046966765098	1038.0012766563939	0.0	862.702458332919	1179.1348515232607	0.0
1082	36.083480963480966	658.7448729153531	1156.9193811033672	0.0	596.4301582385089	1155.8052229435602	0.0	573.3894167963842	1337.1834062569328	0.0	570.6489902684913	1416.7026087084716	0.0	582.8043744353457	1512.8429075354393	0.0	554.5349934317713	1493.7606504773892	0.0	575.0330609356575	1416.4161340221506	0.0	717.1249552421165	1163.9270328668886	0.0	700.579647394472	1366.0568471439067	0.0	677.1354042833605	1553.2528638430995	0.0	672.1527949856786	1633.8164273848915	0.0	703.8913454239163	1624.8203120820997	0.0	666.2195184386175	1574.908873482175	0.0	674.1517328386801	864.4327632537438	0.0	692.1991365369156	738.337409739353	0.0	685.0512015743744	858.4347137072036	0.0	554.4040343492442	876.3893903371694	0.0	512.6570839562138	1016.2109240322777	0.0	499.4849444952038	1146.534771469776	0.0	787.1433566746481	890.2293426479976	0.0	828.5683789635056	1048.8884048099387	0.0	865.8032423731747	1194.5883215388817	0.0
